# 3ds Max Wavefront OBJ Exporter v0.99 - (c)2007 guruware
# File Created: 28.11.2022 03:14:30

mtllib stone3.mtl

#
# object Object005
#

v  3.4374 11.9359 8.8646
v  3.1594 11.9359 9.0226
v  3.1562 11.6502 9.0916
v  3.5703 11.6502 8.8850
v  3.1195 11.9359 8.0322
v  3.2379 11.6502 8.0036
v  2.7800 11.6502 7.8500
v  2.7726 11.9359 7.9284
v  2.5467 11.6502 8.0129
v  2.5452 11.8539 8.1151
v  2.7150 11.7860 8.6984
v  2.7068 11.6502 8.7570
v  2.5117 11.7410 8.5699
v  2.4591 11.6502 8.6140
v  2.3500 11.6502 8.3008
v  2.4015 11.8231 8.3235
v  2.6856 12.0287 8.4015
v  2.8921 12.0287 8.1012
v  3.2847 11.9777 8.4182
v  3.1748 11.9777 8.7495
v  3.5646 11.9359 8.4539
v  3.6750 11.6502 8.4113
# 22 vertices

vn 0.6820 0.3449 0.6449
vn 0.4840 0.2004 0.8518
vn 0.4589 0.2301 0.8582
vn 0.7501 0.3603 0.5546
vn 0.4538 0.2839 -0.8447
vn 0.5202 0.2985 -0.8002
vn 0.2914 0.2437 -0.9250
vn 0.2769 0.2608 -0.9248
vn -0.6103 0.2612 -0.7479
vn -0.5602 0.2054 -0.8025
vn -0.6939 0.2717 -0.6668
vn -0.7423 0.3036 -0.5973
vn -0.5939 0.2219 0.7733
vn -0.5916 0.3491 0.7267
vn -0.5739 0.3558 0.7376
vn -0.5856 0.1965 0.7864
vn -0.6620 0.5167 0.5429
vn -0.6144 0.6027 0.5092
vn -0.8007 0.2891 -0.5247
vn -0.8043 0.3069 -0.5088
vn -0.4870 0.8734 -0.0029
vn -0.5447 0.8149 0.1978
vn -0.0254 0.9623 -0.2707
vn -0.2652 0.9138 -0.3076
vn -0.4952 0.7618 0.4176
vn 0.1471 0.9876 -0.0540
vn -0.0692 0.9865 0.1483
vn 0.1197 0.9889 0.0884
vn 0.1509 0.9882 -0.0259
vn -0.1652 0.9763 0.1401
vn 0.2540 0.9170 -0.3076
vn -0.2425 0.9456 0.2168
vn 0.1556 0.9560 0.2486
vn -0.8591 0.2990 0.4154
vn -0.8682 0.1990 0.4546
vn 0.9042 0.3615 0.2276
vn 0.9230 0.3262 0.2040
vn 0.6417 0.3456 -0.6847
vn 0.6392 0.3491 -0.6852
# 39 vertex normals

vt 0.6535 0.1427 0.0000
vt 0.6266 0.1123 0.0000
vt 0.6296 0.0920 0.0000
vt 0.6762 0.1402 0.0000
vt 0.5804 0.2299 0.0000
vt 0.5933 0.2430 0.0000
vt 0.5252 0.2414 0.0000
vt 0.5342 0.2282 0.0000
vt 0.5010 0.2079 0.0000
vt 0.5140 0.1953 0.0000
vt 0.5583 0.1312 0.0000
vt 0.5548 0.1152 0.0000
vt 0.5281 0.1377 0.0000
vt 0.5154 0.1224 0.0000
vt 0.4872 0.1594 0.0000
vt 0.5052 0.1639 0.0000
vt 0.5590 0.1735 0.0000
vt 0.5565 0.2135 0.0000
vt 0.6167 0.1907 0.0000
vt 0.6173 0.1463 0.0000
vt 0.6516 0.1973 0.0000
vt 0.6696 0.2093 0.0000
# 22 texture coords

o Object005
g Object005
usemtl stone3_tree7
s 8
f 1/1/1 2/2/2 3/3/3 
f 3/3/3 4/4/4 1/1/1 
s 16
f 5/5/5 6/6/6 7/7/7 
f 7/7/7 8/8/8 5/5/5 
s 32
f 8/8/9 7/7/10 9/9/11 
f 9/9/11 10/10/12 8/8/9 
s 64
f 2/2/13 11/11/14 12/12/15 
f 12/12/15 3/3/16 2/2/13 
f 12/12/15 11/11/14 13/13/17 
f 13/13/17 14/14/18 12/12/15 
s 32
f 10/10/12 9/9/11 15/15/19 
f 15/15/19 16/16/20 10/10/12 
s 4
f 10/10/21 17/17/22 18/18/23 
f 18/18/23 8/8/24 10/10/21 
f 17/17/22 10/10/21 11/11/25 
f 19/19/26 18/18/23 17/17/22 
f 17/17/22 20/20/27 19/19/26 
f 1/1/28 21/21/29 19/19/26 
f 20/20/27 11/11/25 2/2/30 
f 18/18/23 5/5/31 8/8/24 
f 17/17/22 11/11/25 20/20/27 
f 13/13/32 11/11/25 10/10/21 
f 10/10/21 16/16/33 13/13/32 
s 64
f 15/15/34 14/14/18 13/13/17 
f 13/13/17 16/16/35 15/15/34 
s 8
f 21/21/36 1/1/1 4/4/4 
f 4/4/4 22/22/37 21/21/36 
s 4
f 19/19/26 20/20/27 1/1/28 
f 5/5/31 18/18/23 19/19/26 
f 19/19/26 21/21/29 5/5/31 
s 16
f 6/6/6 5/5/5 21/21/38 
f 21/21/38 22/22/39 6/6/6 
s 4
f 20/20/27 2/2/30 1/1/28 
# 33 faces

