# 3ds Max Wavefront OBJ Exporter v0.99 - (c)2007 guruware
# File Created: 28.11.2022 03:14:02

mtllib stone2.mtl

#
# object Object004
#

v  2.0268 12.5418 4.9752
v  1.3177 12.5418 5.2724
v  1.3177 11.6502 5.2724
v  2.1418 11.6502 4.8613
v  1.3760 12.5418 3.0133
v  1.4803 11.6502 3.1072
v  0.5691 11.6502 2.8017
v  0.5691 12.5418 2.8017
v  0.1048 11.6502 3.1258
v  -0.0334 12.4099 3.2793
v  0.3971 12.1143 4.5828
v  0.4234 11.6502 4.6065
v  -0.3091 11.9711 4.4502
v  -0.2722 11.6502 4.4835
v  -0.4888 11.6502 3.7851
v  -0.4888 12.1739 3.7851
v  0.3812 13.0268 3.8992
v  0.7922 13.0268 3.3016
v  1.5734 12.9446 3.9324
v  1.3548 12.9446 4.5917
v  2.3501 12.5418 3.9187
v  2.3501 11.6502 3.9187
# 22 vertices

vn 0.7206 0.0248 0.6929
vn 0.3865 0.0000 0.9223
vn 0.4193 -0.0310 0.9073
vn 0.8028 0.0016 0.5963
vn 0.4778 -0.0172 -0.8783
vn 0.5287 -0.0281 -0.8484
vn 0.2872 -0.0327 -0.9573
vn 0.2537 0.0000 -0.9673
vn -0.6051 0.0258 -0.7957
vn -0.5724 0.0000 -0.8200
vn -0.6612 0.0115 -0.7502
vn -0.6876 0.0215 -0.7258
vn -0.4311 0.0200 0.9021
vn -0.4118 0.0286 0.9108
vn -0.5990 0.0017 0.8008
vn -0.5995 0.0000 0.8004
vn -0.7118 0.0027 0.7023
vn -0.6223 0.0095 0.7827
vn -0.7431 0.0000 -0.6691
vn -0.6249 0.7806 -0.0104
vn -0.5578 0.8035 0.2080
vn -0.0453 0.9100 -0.4120
vn -0.2415 0.7481 -0.6180
vn -0.5474 0.6797 0.4882
vn 0.3366 0.9337 -0.1219
vn -0.0201 0.9328 0.3598
vn 0.3596 0.8824 0.3033
vn 0.4568 0.8842 -0.0980
vn -0.2383 0.8415 0.4849
vn 0.3537 0.7616 -0.5430
vn -0.2020 0.9342 0.2941
vn -0.2481 0.9059 0.3432
vn -0.9624 -0.0220 0.2707
vn -0.9654 0.0000 0.2609
vn 0.9668 0.0408 0.2523
vn 0.9764 0.0000 0.2158
vn 0.6816 0.0010 -0.7317
vn 0.6821 0.0000 -0.7312
# 38 vertex normals

vt 0.4775 0.0677 0.0000
vt 0.4612 0.0415 0.0000
vt 0.4902 0.0085 0.0000
vt 0.5121 0.0643 0.0000
vt 0.3802 0.1398 0.0000
vt 0.3803 0.1908 0.0000
vt 0.3040 0.1440 0.0000
vt 0.3346 0.1209 0.0000
vt 0.2951 0.1090 0.0000
vt 0.3247 0.0907 0.0000
vt 0.3892 0.0344 0.0000
vt 0.3894 0.0056 0.0000
vt 0.3445 0.0339 0.0000
vt 0.3417 0.0118 0.0000
vt 0.2955 0.0625 0.0000
vt 0.3173 0.0668 0.0000
vt 0.3696 0.0806 0.0000
vt 0.3674 0.1092 0.0000
vt 0.4212 0.0923 0.0000
vt 0.4327 0.0641 0.0000
vt 0.4571 0.1080 0.0000
vt 0.4897 0.1358 0.0000
# 22 texture coords

o Object004
g Object004
usemtl stone2_tree7
s 8
f 1/1/1 2/2/2 3/3/3 
f 3/3/3 4/4/4 1/1/1 
s 16
f 5/5/5 6/6/6 7/7/7 
f 7/7/7 8/8/8 5/5/5 
s 32
f 8/8/9 7/7/10 9/9/11 
f 9/9/11 10/10/12 8/8/9 
s 64
f 11/11/13 12/12/14 3/3/15 
f 3/3/15 2/2/16 11/11/13 
f 12/12/14 11/11/13 13/13/17 
f 13/13/17 14/14/18 12/12/14 
s 32
f 10/10/12 9/9/11 15/15/19 
f 15/15/19 16/16/19 10/10/12 
s 4
f 10/10/20 17/17/21 18/18/22 
f 18/18/22 8/8/23 10/10/20 
f 17/17/21 10/10/20 11/11/24 
f 19/19/25 18/18/22 17/17/21 
f 17/17/21 20/20/26 19/19/25 
f 1/1/27 21/21/28 19/19/25 
f 20/20/26 11/11/24 2/2/29 
f 18/18/22 5/5/30 8/8/23 
f 17/17/21 11/11/24 20/20/26 
f 11/11/24 10/10/20 16/16/31 
f 16/16/31 13/13/32 11/11/24 
s 64
f 15/15/33 14/14/18 13/13/17 
f 13/13/17 16/16/34 15/15/33 
s 8
f 21/21/35 1/1/1 4/4/4 
f 4/4/4 22/22/36 21/21/35 
s 4
f 19/19/25 20/20/26 1/1/27 
f 5/5/30 18/18/22 19/19/25 
f 19/19/25 21/21/28 5/5/30 
s 16
f 6/6/6 5/5/5 21/21/37 
f 21/21/37 22/22/38 6/6/6 
s 4
f 20/20/26 2/2/29 1/1/27 
# 33 faces

